<?xml version="1.0" encoding="UTF-8" standalone="no"?>
<!DOCTYPE svg PUBLIC "-//W3C//DTD SVG 1.1//EN" "http://www.w3.org/Graphics/SVG/1.1/DTD/svg11.dtd">
<svg width="100%" height="100%" viewBox="0 0 448 256" version="1.1" xmlns="http://www.w3.org/2000/svg" xmlns:xlink="http://www.w3.org/1999/xlink" xml:space="preserve" xmlns:serif="http://www.serif.com/" style="fill-rule:evenodd;clip-rule:evenodd;stroke-linejoin:round;stroke-miterlimit:2;">
    <g transform="matrix(0.997506,0,0,1,49.9975,0)">
        <g transform="matrix(1.65943,0,0,1.86027,25.6257,-4.00183)">
            <path d="M225,6.183L225,14.246C225,16.471 222.97,18.278 220.469,18.278L48.294,18.278C45.793,18.278 43.763,16.471 43.763,14.246L43.763,6.183C43.763,3.958 45.793,2.151 48.294,2.151L220.469,2.151C222.97,2.151 225,3.958 225,6.183Z"/>
        </g>
        <g transform="matrix(5.41247e-17,-0.882823,1.86492,1.14477e-16,364.911,198.635)">
            <path d="M225,6.183L225,14.246C225,16.471 221.193,18.278 216.505,18.278L52.259,18.278C47.57,18.278 43.763,16.471 43.763,14.246L43.763,6.183C43.763,3.958 47.57,2.151 52.259,2.151L216.505,2.151C221.193,2.151 225,3.958 225,6.183Z"/>
        </g>
    </g>
    <g transform="matrix(5.30168e-17,0.86583,-0.350972,2.14908e-17,476.078,-133.166)">
        <path d="M200,137.697L200,107.78L298.172,107.78L298.172,80L315.496,122.738L298.172,165.477L298.172,137.697L200,137.697Z" style="fill:white;"/>
    </g>
    <g transform="matrix(-0.671283,0,0,0.671283,384.011,-25.8832)">
        <path d="M499.875,219.707L493.471,210.711C487.329,202.079 478.592,187.289 473.999,177.742L442.413,112.096C437.016,100.875 423.034,92.085 410.579,92.085L192.186,92.085C179.931,92.085 165.127,100.152 158.478,110.45L100.354,200.524C95.101,208.665 82.69,217.39 73.25,219.577L22.31,231.382C10.009,234.232 0,246.827 0,259.456L0,348.252C0,361.355 10.661,372.016 23.764,372.016L61.723,372.016C69.775,399.657 95.319,419.917 125.522,419.917C155.726,419.917 181.27,399.657 189.322,372.016L312.553,372.016C320.606,399.657 346.15,419.917 376.354,419.917C406.556,419.917 432.101,399.657 440.153,372.016L488.236,372.016C501.341,372.016 512,361.355 512,348.252L512,257.656C512,245.93 506.676,229.26 499.875,219.707ZM125.522,386.47C107.293,386.47 92.512,371.688 92.512,353.459C92.512,335.228 107.293,320.45 125.522,320.45C143.753,320.45 158.533,335.228 158.533,353.459C158.533,371.688 143.753,386.47 125.522,386.47ZM313.874,219.604L147.348,219.604C138.665,219.604 135.263,213.54 139.789,206.13L181.902,137.153C186.426,129.742 197.233,123.679 205.915,123.679L313.874,123.679L313.874,219.604ZM376.354,386.47C358.123,386.47 343.343,371.688 343.343,353.459C343.343,335.228 358.123,320.45 376.354,320.45C394.583,320.45 409.363,335.228 409.363,353.459C409.363,371.688 394.583,386.47 376.354,386.47ZM424.492,219.604L351.861,219.604L351.861,123.677L393.066,123.677C401.749,123.677 411.065,130.427 413.768,138.68L435.365,204.601C438.069,212.851 433.176,219.604 424.492,219.604Z" style="fill:rgb(179,179,179);fill-rule:nonzero;"/>
    </g>
</svg>
